<?xml version="1.0" encoding="UTF-8" standalone="no"?>
<svg
   xmlns:dc="http://purl.org/dc/elements/1.1/"
   xmlns:cc="http://creativecommons.org/ns#"
   xmlns:rdf="http://www.w3.org/1999/02/22-rdf-syntax-ns#"
   xmlns:svg="http://www.w3.org/2000/svg"
   xmlns="http://www.w3.org/2000/svg"
   xmlns:sodipodi="http://sodipodi.sourceforge.net/DTD/sodipodi-0.dtd"
   xmlns:inkscape="http://www.inkscape.org/namespaces/inkscape"
   height="300px"
   width="300px"
   fill="#000000"
   version="1.1"
   x="0px"
   y="0px"
   viewBox="0 0 100 100"
   enable-background="new 0 0 100 100"
   xml:space="preserve"
   id="svg132"
   sodipodi:docname="cawbird-video-placeholder.svg"
   inkscape:version="1.0.1 (3bc2e813f5, 2020-09-07)"><metadata
     id="metadata138"><rdf:RDF><cc:Work
         rdf:about=""><dc:format>image/svg+xml</dc:format><dc:type
           rdf:resource="http://purl.org/dc/dcmitype/StillImage" /></cc:Work></rdf:RDF></metadata><defs
     id="defs136" /><sodipodi:namedview
     pagecolor="#ffffff"
     bordercolor="#666666"
     borderopacity="1"
     objecttolerance="10"
     gridtolerance="10"
     guidetolerance="10"
     inkscape:pageopacity="0"
     inkscape:pageshadow="2"
     inkscape:window-width="2560"
     inkscape:window-height="1377"
     id="namedview134"
     showgrid="false"
     inkscape:zoom="1.7135554"
     inkscape:cx="-45.232228"
     inkscape:cy="191.27892"
     inkscape:window-x="0"
     inkscape:window-y="27"
     inkscape:window-maximized="1"
     inkscape:current-layer="g110" /><g
     id="g110" /><g
     id="g130"><path
       fill="#000000"
       d="M81.407,68.682c-1.448,0-2.893,0.068-4.339,0.184c-3.857,0.309-7.741,0.963-11.817,1.621   c-5.607,0.904-11.575,1.812-18.332,1.812c-6.381,0-13.467-0.816-21.605-3.201c2.898,4.215,7.269,6.842,12.26,8.424   c5.216,1.65,11.097,2.16,16.606,2.16c1.09,0,2.162-0.021,3.216-0.057c2.725-0.09,5.3-0.277,7.585-0.479   c0.683-0.061,1.385-0.09,2.105-0.09c5.715,0.004,12.489,1.773,17.848,3.541c4.491,1.482,7.98,2.961,8.993,3.402l2.522-14.393   C91.149,69.432,86.25,68.682,81.407,68.682z"
       id="path112" /><path
       fill="#000000"
       d="M43.448,13.766h-0.266c-0.032,0-0.063,0-0.095,0c-0.32,0-0.645-0.006-0.967-0.006   c-0.159,0-0.317,0.001-0.472,0.006c-0.044,0.001-0.089,0.003-0.134,0.003c-0.141,0-0.283-0.007-0.425-0.007   c-0.058,0-0.116,0-0.175,0.003h-0.466C20.069,14.887,4,27.444,4,42.619c0,15.908,17.672,28.854,39.448,28.854   c21.774,0,39.447-12.945,39.447-28.854C82.896,26.71,65.223,13.766,43.448,13.766z M43.556,69.262   C22.877,69.273,6.103,57.254,6.088,42.423c0-0.011,0-0.023,0-0.035C6.075,27.554,22.827,15.522,43.505,15.511   c20.68-0.009,37.454,12.007,37.467,26.84c0,0.012,0,0.025,0,0.037C80.986,57.219,64.234,69.252,43.556,69.262z"
       id="path114" /><path
       fill="#000000"
       d="M4.546,49.99C4.189,51.457,4,52.963,4,54.5c0,14.979,17.662,27.123,39.448,27.123   c3.787,0,7.448-0.367,10.915-1.053c-0.23,0.002-0.463,0.006-0.697,0.006c-5.539,0-11.466-0.51-16.759-2.184   c-5.11-1.619-9.633-4.34-12.611-8.746C14.284,65.586,6.903,58.449,4.546,49.99z"
       id="path116" /><path
       fill="#000000"
       d="M57.864,70.305c2.563-0.316,5.029-0.703,7.433-1.092c4.266-0.688,8.337-1.377,12.406-1.666   c3.699-4.131,5.834-8.994,5.834-14.201c0-1.537-0.189-3.041-0.547-4.508C80.228,58.75,70.57,66.846,57.864,70.305z"
       id="path118" /><path
       fill="#000000"
       d="M43.505,15.257C22.827,15.266,6.075,27.299,6.088,42.132c0,0.011,0,0.023,0,0.035   c0.015,14.835,16.789,26.851,37.468,26.841c20.678-0.01,37.43-12.045,37.417-26.876c0-0.012,0-0.024,0-0.036   C80.959,27.263,64.186,15.247,43.505,15.257z M37.517,18.174c0.034-0.003,0.066-0.003,0.098-0.003c0.077,0,0.153,0.006,0.231,0.006   c0.024,0,0.047-0.002,0.072-0.003c0.095-0.004,0.191-0.005,0.286-0.005c0.193,0,0.387,0.005,0.581,0.005   c6.217,0,11.261,3.631,11.261,8.063c0,4.434-5.043,7.997-11.261,7.997c-6.22,0-11.263-3.563-11.263-7.997   C27.521,22.112,31.897,18.628,37.517,18.174z M22.524,52.291c-6.807,0-12.327-3.927-12.327-8.795c0-4.525,4.72-8.293,10.862-8.795   c0.154-0.013,0.315-0.018,0.479-0.018c0.328,0,0.667,0.018,0.985,0.018c6.807,0,12.328,3.928,12.328,8.795   C34.852,48.364,29.331,52.291,22.524,52.291z M47.778,65.154c-7.53,0-13.659-4.396-13.659-9.797c0-4.866,5.035-8.975,11.527-9.729   h0.134h0.066h0.067h0.068h0.199h0.066c0.172-0.014,0.34-0.02,0.509-0.02c0.336,0,0.671,0.02,1.023,0.02   c7.532,0,13.661,4.327,13.661,9.729C61.439,60.758,55.311,65.154,47.778,65.154z M63.438,45.095   c-6.616,0-11.993-3.801-11.993-8.528c0-4.367,4.674-8.067,10.595-8.596c0.034-0.004,0.066-0.004,0.097-0.004   c0.076,0,0.15,0.007,0.228,0.007c0.024,0,0.05,0,0.076-0.002c0.07-0.004,0.142-0.007,0.212-0.007c0.147,0,0.292,0.007,0.442,0.007   c0.025,0,0.052,0,0.077,0h0.267c6.618,0,11.996,3.868,11.996,8.596C75.434,41.293,70.056,45.095,63.438,45.095z"
       id="path120" /><path
       fill="#000000"
       d="M22.524,35.828c-0.155,0-0.316-0.005-0.477-0.009c-0.155-0.003-0.311-0.008-0.465-0.008   c-0.163,0-0.3,0.005-0.42,0.015c-5.667,0.464-9.94,3.872-9.94,7.926c0,4.37,5.071,7.924,11.302,7.924   c6.233,0,11.302-3.554,11.302-7.924S28.757,35.828,22.524,35.828z"
       id="path122" /><path
       fill="#000000"
       d="M29.088,27.871c0.756,3.254,4.817,5.748,9.702,5.748c5.419,0,9.828-3.069,9.828-6.843   c0-0.182-0.014-0.362-0.033-0.542c-1.803-0.192-3.65-0.292-5.53-0.292C38.103,25.941,33.384,26.628,29.088,27.871z"
       id="path124" /><path
       fill="#000000"
       d="M52.482,36.82c0,4.218,4.914,7.65,10.955,7.65c6.043,0,10.956-3.432,10.956-7.65   c0-0.155-0.008-0.309-0.021-0.464c-3.293-2.985-7.502-5.464-12.346-7.238C56.665,29.643,52.482,33.008,52.482,36.82z"
       id="path126" /><path
       fill="#000000"
       d="M47.778,46.828c-0.175,0-0.344-0.005-0.514-0.009c-0.154-0.004-0.309-0.009-0.462-0.009   c-0.168,0-0.31,0.006-0.444,0.016l-0.02,0.002h-0.021h-0.063h-0.189H46h-0.064h-0.064h-0.098c-6.005,0.708-10.53,4.483-10.53,8.788   c0,4.879,5.623,8.85,12.534,8.85c6.913,0,12.537-3.971,12.537-8.85C60.315,50.77,54.691,46.828,47.778,46.828z"
       id="path128" /></g></svg>
