<?xml version="1.0" encoding="UTF-8" standalone="no"?>
<!-- Created with Inkscape (http://www.inkscape.org/) -->

<svg
   xmlns:dc="http://purl.org/dc/elements/1.1/"
   xmlns:cc="http://creativecommons.org/ns#"
   xmlns:rdf="http://www.w3.org/1999/02/22-rdf-syntax-ns#"
   xmlns:svg="http://www.w3.org/2000/svg"
   xmlns="http://www.w3.org/2000/svg"
   xmlns:xlink="http://www.w3.org/1999/xlink"
   xmlns:sodipodi="http://sodipodi.sourceforge.net/DTD/sodipodi-0.dtd"
   xmlns:inkscape="http://www.inkscape.org/namespaces/inkscape"
   width="640"
   height="640"
   id="svg2"
   version="1.1"
   inkscape:version="0.92.4 (5da689c313, 2019-01-14)"
   sodipodi:docname="cawbird.svg"
   inkscape:export-filename="/home/rlerch/source/cawbird/assets/512x512/cawbird.png"
   inkscape:export-xdpi="72"
   inkscape:export-ydpi="72">
  <defs
     id="defs4">
    <linearGradient
       inkscape:collect="always"
       id="linearGradient5954">
      <stop
         style="stop-color:#706c7e;stop-opacity:1"
         offset="0"
         id="stop5956" />
      <stop
         style="stop-color:#938f9d;stop-opacity:1"
         offset="1"
         id="stop5958" />
    </linearGradient>
    <linearGradient
       inkscape:collect="always"
       id="linearGradient5813">
      <stop
         style="stop-color:#ea6ba2;stop-opacity:1"
         offset="0"
         id="stop5815" />
      <stop
         style="stop-color:#e5458a;stop-opacity:1"
         offset="1"
         id="stop5817" />
    </linearGradient>
    <linearGradient
       inkscape:collect="always"
       id="linearGradient5751">
      <stop
         style="stop-color:#030207;stop-opacity:1"
         offset="0"
         id="stop5753" />
      <stop
         style="stop-color:#221645;stop-opacity:1"
         offset="1"
         id="stop5755" />
    </linearGradient>
    <linearGradient
       id="linearGradient3827">
      <stop
         style="stop-color:#ffdcff;stop-opacity:1;"
         offset="0"
         id="stop3829" />
      <stop
         style="stop-color:#ff98ff;stop-opacity:1;"
         offset="1"
         id="stop3831" />
    </linearGradient>
    <linearGradient
       x1="348.28809"
       y1="-137.29201"
       x2="361.62851"
       y2="-137.29201"
       id="path2391_2_"
       gradientUnits="userSpaceOnUse"
       gradientTransform="matrix(0.6415,0,0,-0.7781,-31.1663,11.760301)">
      <stop
         style="stop-color:#fbb045;stop-opacity:1"
         offset="0"
         id="stop323" />
      <stop
         style="stop-color:#c77829;stop-opacity:1"
         offset="1"
         id="stop325" />
    </linearGradient>
    <linearGradient
       x1="348.28809"
       y1="-137.29201"
       x2="361.62851"
       y2="-137.29201"
       id="linearGradient4197"
       gradientUnits="userSpaceOnUse"
       gradientTransform="matrix(0.6415,0,0,-0.7781,-31.1663,4.888)">
      <stop
         style="stop-color:#fbb045;stop-opacity:1"
         offset="0"
         id="stop4199" />
      <stop
         style="stop-color:#c77829;stop-opacity:1"
         offset="1"
         id="stop4201" />
    </linearGradient>
    <linearGradient
       gradientTransform="matrix(0.6415,0,0,-0.7781,-31.1663,4.888)"
       gradientUnits="userSpaceOnUse"
       id="linearGradient4207"
       y2="-137.29201"
       x2="361.62851"
       y1="-137.29201"
       x1="348.28809">
      <stop
         id="stop4209"
         offset="0"
         style="stop-color:#fbb045;stop-opacity:1" />
      <stop
         id="stop4211"
         offset="1"
         style="stop-color:#c77829;stop-opacity:1" />
    </linearGradient>
    <clipPath
       clipPathUnits="userSpaceOnUse"
       id="clipPath5747">
      <path
         sodipodi:nodetypes="ccsssccc"
         id="path5749"
         style="fill:#729fcf;stroke:none"
         d="m -317.14586,654.26767 c -17.00009,19.30163 -31.02633,41.79278 -41.26613,66.58253 -8.04021,23.54776 -12.21493,49.18161 -12.21493,76.02201 0,114.50701 142.26245,207.45349 207.4535,207.45349 67.720759,0 207.451002,-92.94648 207.451002,-207.45349 0,-27.65912 -4.641115,-54.04072 -13.441743,-78.17401 -8.60386,-20.27999 -19.750231,-38.99031 -32.989533,-55.63205 0,0 -215.016776,61.83861 -314.992166,-8.79848 z"
         inkscape:connector-curvature="0" />
    </clipPath>
    <radialGradient
       inkscape:collect="always"
       xlink:href="#linearGradient5751"
       id="radialGradient5757"
       cx="-159.43066"
       cy="691.02435"
       fx="-159.43066"
       fy="691.02435"
       r="207.45225"
       gradientTransform="matrix(-3.3770551e-5,2.592452,-2.6947173,-3.6075293e-7,1702.7366,1122.0672)"
       gradientUnits="userSpaceOnUse" />
    <filter
       inkscape:collect="always"
       style="color-interpolation-filters:sRGB"
       id="filter5771"
       x="-0.037791939"
       width="1.0755839"
       y="-0.047262602"
       height="1.0945252">
      <feGaussianBlur
         inkscape:collect="always"
         stdDeviation="6.3132958"
         id="feGaussianBlur5773" />
    </filter>
    <clipPath
       clipPathUnits="userSpaceOnUse"
       id="clipPath5894">
      <path
         inkscape:connector-curvature="0"
         d="m -318.18041,657.37131 c -15.57236,16.03908 -29.99178,38.68914 -40.23158,63.47889 -8.04021,23.54776 -12.21493,49.18161 -12.21493,76.02201 0,114.50701 142.26245,207.45349 207.4535,207.45349 67.720759,0 207.451002,-92.94648 207.451002,-207.45349 0,-27.65912 -4.736624,-55.96003 -13.441743,-78.17401 C 22.13072,696.48422 11.019869,680.47948 -3.1882415,666.16979 -17.396352,651.8601 -89.365585,600.40767 -163.92612,601.10968 c -74.58803,0.70226 -138.68193,40.22255 -154.25429,56.26163 z"
         style="fill:url(#radialGradient5898);fill-opacity:1;stroke:none"
         id="path5896"
         sodipodi:nodetypes="zcssszzsz" />
    </clipPath>
    <radialGradient
       inkscape:collect="always"
       xlink:href="#linearGradient5751"
       id="radialGradient5898"
       gradientUnits="userSpaceOnUse"
       gradientTransform="matrix(-3.2261034e-5,2.4765714,-2.5742656,-3.4462756e-7,1619.4445,1107.4769)"
       cx="-159.43066"
       cy="691.02435"
       fx="-159.43066"
       fy="691.02435"
       r="207.45225" />
    <clipPath
       clipPathUnits="userSpaceOnUse"
       id="clipPath5940">
      <path
         sodipodi:nodetypes="ccscsscsscscsscsscsccc"
         style="fill:url(#radialGradient5944);fill-opacity:1;stroke:none"
         d="m -147.99318,571.83543 c -14.66351,0 -27.37954,5.68461 -33.72096,13.98079 -5.73658,-2.11442 -12.27479,-3.31933 -19.2126,-3.31933 -17.95567,0 -33.21547,8.02436 -38.86486,19.21259 -6.22657,-7.25801 -16.77109,-12.02436 -28.73097,-12.02436 -19.13581,0 -34.66622,12.2107 -34.66622,27.28014 0,1.34386 0.13539,2.66497 0.37369,3.95683 -8.14432,7.05312 -13.2334,16.99932 -13.2334,28.02754 0,21.38805 19.09935,38.71098 42.64583,38.71098 6.51942,0 12.26127,3.05094 17.78662,0.67469 21.37577,8.86141 51.75433,9.98675 84.89308,9.98675 40.02986,0 75.372932,8.80372 96.612586,-3.47275 7.494986,7.20693 18.725099,-5.05642 31.280935,-5.05642 22.56538,0 40.8652535,-14.79098 40.8652535,-33.03951 0,-14.3297 -11.2894805,-26.52642 -27.0603185,-31.10507 0.02582,-0.52495 0.04399,-1.05178 0.04399,-1.58272 0,-18.64097 -16.056963,-33.74297 -35.875251,-33.74297 -7.547702,0 -14.554706,2.19139 -20.333703,5.93525 -5.604898,-3.63114 -13.994215,-5.93525 -23.367262,-5.93525 -1.0102,0 -2.00457,0.0355 -2.9896,0.0879 -4.65359,-10.73522 -19.20276,-18.57511 -36.4468,-18.57511 z"
         id="path5942"
         inkscape:connector-curvature="0" />
    </clipPath>
    <radialGradient
       inkscape:collect="always"
       xlink:href="#linearGradient5813"
       id="radialGradient5944"
       gradientUnits="userSpaceOnUse"
       gradientTransform="matrix(5.8780813e-8,0.94264188,-1.6406413,2.5739882e-7,921.34182,790.80876)"
       cx="-157.64696"
       cy="658.03326"
       fx="-157.64696"
       fy="658.03326"
       r="147.5348" />
    <linearGradient
       inkscape:collect="always"
       xlink:href="#linearGradient5954"
       id="linearGradient5960"
       x1="194.68445"
       y1="105.43909"
       x2="194.68445"
       y2="132.01213"
       gradientUnits="userSpaceOnUse" />
    <linearGradient
       inkscape:collect="always"
       xlink:href="#linearGradient5954"
       id="linearGradient5992"
       gradientUnits="userSpaceOnUse"
       x1="194.68445"
       y1="105.43909"
       x2="194.68445"
       y2="132.01213" />
    <filter
       inkscape:collect="always"
       style="color-interpolation-filters:sRGB"
       id="filter6024"
       x="-0.12082061"
       width="1.2416412"
       y="-0.09961861"
       height="1.1992372">
      <feGaussianBlur
         inkscape:collect="always"
         stdDeviation="1.9067309"
         id="feGaussianBlur6026" />
    </filter>
    <filter
       inkscape:collect="always"
       style="color-interpolation-filters:sRGB"
       id="filter6064"
       x="-0.14700331"
       width="1.2940066"
       y="-0.22814828"
       height="1.4562966">
      <feGaussianBlur
         inkscape:collect="always"
         stdDeviation="14.535452"
         id="feGaussianBlur6066" />
    </filter>
    <linearGradient
       inkscape:collect="always"
       xlink:href="#linearGradient5954"
       id="linearGradient6270"
       gradientUnits="userSpaceOnUse"
       x1="194.68445"
       y1="105.43909"
       x2="194.68445"
       y2="132.01213" />
    <filter
       inkscape:collect="always"
       style="color-interpolation-filters:sRGB"
       id="filter6314"
       x="-0.02446795"
       width="1.0489359"
       y="-0.053607752"
       height="1.1072155">
      <feGaussianBlur
         inkscape:collect="always"
         stdDeviation="3.8531445"
         id="feGaussianBlur6316" />
    </filter>
    <clipPath
       clipPathUnits="userSpaceOnUse"
       id="clipPath6330">
      <path
         id="path6332"
         style="fill:#ffffff;stroke:none"
         d="m -221.69556,708.46218 c -43.12933,0 -78.1553,40.49759 -78.1553,90.3966 0,49.899 35.02597,90.39385 78.1553,90.39385 25.34249,0 47.83141,-13.99943 62.10743,-35.66131 14.27604,21.6783 36.81426,35.66131 62.170421,35.66131 43.123863,0 78.152565,-40.49758 78.152565,-90.39385 0,-49.90175 -35.028702,-90.3966 -78.152565,-90.3966 -25.353441,0 -47.894381,13.98849 -62.170421,35.66406 -14.27602,-21.65641 -36.77043,-35.66406 -62.10743,-35.66406 z"
         inkscape:connector-curvature="0" />
    </clipPath>
    <clipPath
       clipPathUnits="userSpaceOnUse"
       id="clipPath5940-8">
      <path
         sodipodi:nodetypes="ccscsscsscscsscsscsccc"
         style="fill:url(#radialGradient5944);fill-opacity:1;stroke:none"
         d="m -147.99318,571.83543 c -14.66351,0 -27.37954,5.68461 -33.72096,13.98079 -5.73658,-2.11442 -12.27479,-3.31933 -19.2126,-3.31933 -17.95567,0 -33.21547,8.02436 -38.86486,19.21259 -6.22657,-7.25801 -16.77109,-12.02436 -28.73097,-12.02436 -19.13581,0 -34.66622,12.2107 -34.66622,27.28014 0,1.34386 0.13539,2.66497 0.37369,3.95683 -8.14432,7.05312 -13.2334,16.99932 -13.2334,28.02754 0,21.38805 19.09935,38.71098 42.64583,38.71098 6.51942,0 12.69804,-1.31679 18.22339,-3.69304 21.37577,8.86141 51.31756,14.35448 84.45631,14.35448 40.02986,0 75.372932,8.80372 96.612586,-3.47275 7.494986,7.20693 18.725099,-5.05642 31.280935,-5.05642 22.56538,0 40.8652535,-14.79098 40.8652535,-33.03951 0,-14.3297 -11.2894805,-26.52642 -27.0603185,-31.10507 0.02582,-0.52495 0.04399,-1.05178 0.04399,-1.58272 0,-18.64097 -16.056963,-33.74297 -35.875251,-33.74297 -7.547702,0 -14.554706,2.19139 -20.333703,5.93525 -5.604898,-3.63114 -13.994215,-5.93525 -23.367262,-5.93525 -1.0102,0 -2.00457,0.0355 -2.9896,0.0879 -4.65359,-10.73522 -19.20276,-18.57511 -36.4468,-18.57511 z"
         id="path5942-0"
         inkscape:connector-curvature="0" />
    </clipPath>
    <clipPath
       clipPathUnits="userSpaceOnUse"
       id="clipPath5747-2">
      <path
         sodipodi:nodetypes="ccsssccc"
         id="path5749-2"
         style="fill:#729fcf;stroke:none"
         d="m -317.14586,654.26767 c -17.00009,19.30163 -31.02633,41.79278 -41.26613,66.58253 -8.04021,23.54776 -12.21493,49.18161 -12.21493,76.02201 0,114.50701 142.26245,207.45349 207.4535,207.45349 67.720759,0 207.451002,-92.94648 207.451002,-207.45349 0,-27.65912 -4.641115,-54.04072 -13.441743,-78.17401 -8.60386,-20.27999 -19.750231,-38.99031 -32.989533,-55.63205 0,0 -215.016776,61.83861 -314.992166,-8.79848 z"
         inkscape:connector-curvature="0" />
    </clipPath>
  </defs>
  <sodipodi:namedview
     id="base"
     pagecolor="#ffffff"
     bordercolor="#666666"
     borderopacity="1.0"
     inkscape:pageopacity="0.0"
     inkscape:pageshadow="2"
     inkscape:zoom="0.5"
     inkscape:cx="299.53295"
     inkscape:cy="-244.33899"
     inkscape:document-units="px"
     inkscape:current-layer="g5874"
     showgrid="true"
     inkscape:window-width="2560"
     inkscape:window-height="1377"
     inkscape:window-x="0"
     inkscape:window-y="27"
     inkscape:window-maximized="1"
     fit-margin-top="15"
     fit-margin-left="15"
     fit-margin-right="15"
     fit-margin-bottom="15"
     showguides="true"
     inkscape:guide-bbox="true"
     inkscape:snap-bbox="true"
     inkscape:bbox-nodes="false"
     inkscape:object-nodes="true"
     inkscape:snap-bbox-midpoints="true"
     inkscape:snap-global="false">
    <inkscape:grid
       type="xygrid"
       id="grid6366"
       empspacing="8" />
  </sodipodi:namedview>
  <metadata
     id="metadata7">
    <rdf:RDF>
      <cc:Work
         rdf:about="">
        <dc:format>image/svg+xml</dc:format>
        <dc:type
           rdf:resource="http://purl.org/dc/dcmitype/StillImage" />
        <dc:title />
      </cc:Work>
    </rdf:RDF>
  </metadata>
  <g
     inkscape:label="Layer 1"
     inkscape:groupmode="layer"
     id="layer1"
     transform="translate(-67.5625,-213.40625)">
    <g
       id="g4299" />
    <g
       id="g328"
       style="display:none"
       transform="matrix(2.534743,0,0,2.534743,-652.21659,607.98988)">
      <path
         id="path3283_1_"
         style="display:inline;fill:#ffffff;stroke:#010101;stroke-width:5;stroke-linejoin:round"
         d="m 201.312,36.735 c 6.693,-16.214 17.981,-18.409 17.981,-18.409 0,0 -6.278,8.458 -0.592,6.105 8.805,-3.644 36.803,7.773 36.803,7.773 0,0 -37.094,-8.633 -54.192,4.531 z"
         inkscape:connector-curvature="0" />
      <path
         id="path3285_1_"
         style="display:inline;fill:#ffffff;stroke:#010101;stroke-width:5;stroke-linejoin:round"
         d="M 185.963,35.223 C 179.27,19.009 167.982,16.814 167.982,16.814 c 0,0 6.279,8.457 0.591,6.105 -8.805,-3.643 -36.802,7.773 -36.802,7.773 0,0 37.094,-8.634 54.192,4.531 z"
         inkscape:connector-curvature="0" />
    </g>
    <g
       id="g5823"
       transform="matrix(1.3669876,0,0,1.3669876,612.25489,-542.13102)">
      <g
         id="g5874"
         clip-path="url(#clipPath5894)">
        <g
           style="opacity:0.39599998;fill:#000000;filter:url(#filter6024)"
           transform="matrix(2.9694553,0,0,3.3528295,-738.11797,486.08931)"
           id="g6028">
          <g
             id="g6030"
             style="fill:#000000;fill-opacity:1;stroke:none">
            <linearGradient
               x1="348.28809"
               y1="-137.29201"
               x2="361.62851"
               y2="-137.29201"
               id="linearGradient6032"
               gradientUnits="userSpaceOnUse"
               gradientTransform="matrix(0.6415,0,0,-0.7781,-31.1663,4.888)">
              <stop
                 style="stop-color:#fbb045;stop-opacity:1;fill-opacity:1;fill:url(#linearGradient5960)"
                 offset="0"
                 id="stop6034" />
              <stop
                 style="stop-color:#c77829;stop-opacity:1;fill-opacity:1;fill:url(#linearGradient5960)"
                 offset="1"
                 id="stop6036" />
            </linearGradient>
            <path
               inkscape:connector-curvature="0"
               d="m 194.694,95.631301 c -9.361,0 -19.538,9.381999 -19.13,15.304999 0.406,5.924 16.689,30.611 20.352,30.611 3.665,0 17.911,-24.193 17.503,-31.105 -0.406,-6.911 -12.616,-15.303999 -18.725,-14.810999 z"
               style="fill:#000000;fill-opacity:1;stroke:none"
               id="path6038" />
          </g>
          <path
             style="fill:#000000;fill-opacity:1;stroke:none"
             d="m -180.99609,643.17773 c -5.64343,23.02399 -35.15778,71.6211 -43.42969,71.6211 -8.06462,0 -40.24846,-47.19561 -49.2461,-69.44336 -0.83921,2.37311 -1.2434,4.66728 -1.09765,6.7832 1.0291,15.01582 42.30313,77.58985 51.58789,77.58985 9.28983,0 45.39941,-61.32361 44.36523,-78.84375 -0.1479,-2.5177 -0.93042,-5.11217 -2.17968,-7.70704 z"
             id="path6040"
             inkscape:connector-curvature="0"
             transform="matrix(0.39451731,0,0,0.39451731,283.96531,-146.34338)" />
        </g>
        <path
           inkscape:connector-curvature="0"
           d="m -324.46819,647.65197 c -17.79553,20.20477 -32.47807,43.7483 -43.197,69.69798 -8.41641,24.64957 -12.78647,51.48285 -12.78647,79.57913 0,119.86488 148.91901,217.16042 217.1604,217.16042 70.889457,0 217.157778,-97.29554 217.157778,-217.16042 0,-28.95331 -4.858276,-56.56932 -14.070691,-81.83183 C 30.789386,693.86835 19.121468,674.28256 5.2626897,656.86214 -61.368403,550.57586 -250.67371,558.3301 -324.46819,647.65197 Z"
           style="fill:url(#radialGradient5757);fill-opacity:1;stroke:none"
           id="path314"
           sodipodi:nodetypes="ccsssccc"
           clip-path="none" />
        <path
           id="path5962"
           style="opacity:0.44500002;fill:#000000;fill-opacity:1;stroke:none;filter:url(#filter6064)"
           d="m -212.16049,727.83335 c -36.47706,0 -66.10062,34.25124 -66.10062,76.45382 0,42.20258 29.62356,76.4515 66.10062,76.4515 21.43366,0 40.45389,-11.84016 52.52798,-30.16091 12.0741,18.33464 31.13603,30.16091 52.58125,30.16091 36.472438,0 66.098312,-34.25123 66.098312,-76.4515 0,-42.2049 -29.625874,-76.45382 -66.098312,-76.45382 -21.44292,0 -40.50715,11.8309 -52.58125,30.16323 -12.07409,-18.31612 -31.09896,-30.16323 -52.52798,-30.16323 z"
           inkscape:connector-curvature="0"
           transform="matrix(1.171197,0,0,1.171197,27.373267,-166.54895)" />
        <path
           id="path3341_1_"
           style="fill:#ffffff"
           d="m -198.27617,748.77003 c 0,3.24244 -2.62353,5.8687 -5.86596,5.8687 -3.24244,0 -5.8687,-2.62626 -5.8687,-5.8687 0,-3.24243 2.62626,-5.87144 5.8687,-5.87144 3.24243,0 5.86596,2.63174 5.86596,5.87144 z"
           inkscape:connector-curvature="0" />
        <g
           id="g5996"
           style="opacity:0.25200004;fill:#000000;fill-opacity:1;stroke:none;filter:url(#filter6024)"
           transform="matrix(2.9694553,0,0,3.3528295,-738.11797,486.08931)">
          <linearGradient
             x1="348.28809"
             y1="-137.29201"
             x2="361.62851"
             y2="-137.29201"
             id="linearGradient5998"
             gradientUnits="userSpaceOnUse"
             gradientTransform="matrix(0.6415,0,0,-0.7781,-31.1663,4.888)">
            <stop
               style="stop-color:#fbb045;stop-opacity:1;fill-opacity:1;fill:url(#linearGradient5960)"
               offset="0"
               id="stop6000" />
            <stop
               style="stop-color:#c77829;stop-opacity:1;fill-opacity:1;fill:url(#linearGradient5960)"
               offset="1"
               id="stop6002" />
          </linearGradient>
          <path
             inkscape:connector-curvature="0"
             d="m 194.694,95.631301 c -9.361,0 -19.538,9.381999 -19.13,15.304999 0.406,5.924 16.689,30.611 20.352,30.611 3.665,0 17.911,-24.193 17.503,-31.105 -0.406,-6.911 -12.616,-15.303999 -18.725,-14.810999 z"
             style="fill:#000000;fill-opacity:1;stroke:none"
             id="path6004" />
        </g>
        <path
           style="opacity:0.25200004;fill:#000000;fill-opacity:1;stroke:none;filter:url(#filter6024)"
           d="m -180.99609,643.17773 c -5.64343,23.02399 -35.15778,71.6211 -43.42969,71.6211 -8.06462,0 -40.24846,-47.19561 -49.2461,-69.44336 -0.83921,2.37311 -1.2434,4.66728 -1.09765,6.7832 1.0291,15.01582 42.30313,77.58985 51.58789,77.58985 9.28983,0 45.39941,-61.32361 44.36523,-78.84375 -0.1479,-2.5177 -0.93042,-5.11217 -2.17968,-7.70704 z"
           id="path6006"
           inkscape:connector-curvature="0"
           transform="matrix(1.1234356,0,0,2.0637351,94.203159,-492.01069)" />
        <g
           id="g6326"
           clip-path="url(#clipPath6330)"
           transform="translate(0,-48.281344)">
          <path
             id="path2387_1_"
             style="fill:#ffffff;stroke:none"
             d="m -221.69556,708.46218 c -43.12933,0 -78.1553,40.49759 -78.1553,90.3966 0,49.899 35.02597,90.39385 78.1553,90.39385 25.34249,0 47.83141,-13.99943 62.10743,-35.66131 14.27604,21.6783 36.81426,35.66131 62.170421,35.66131 43.123863,0 78.152565,-40.49758 78.152565,-90.39385 0,-49.90175 -35.028702,-90.3966 -78.152565,-90.3966 -25.353441,0 -47.894381,13.98849 -62.170421,35.66406 -14.27602,-21.65641 -36.77043,-35.66406 -62.10743,-35.66406 z"
             inkscape:connector-curvature="0" />
          <path
             sodipodi:type="inkscape:offset"
             inkscape:radius="9.6780052"
             inkscape:original="M 509.63281 287.55664 C 513.27271 299.99113 515.24609 313.3097 515.24609 327.16016 C 515.24609 395.36774 467.3619 450.72852 408.41211 450.72852 C 388.88272 450.72852 370.57625 444.66102 354.82422 434.0625 C 341.0192 420.10175 333.45841 413.73531 327.35742 412.42188 C 346.90771 441.39438 377.31583 460.06055 411.52344 460.06055 C 470.47322 460.06055 518.35742 404.69977 518.35742 336.49219 C 518.35742 319.10953 515.24217 302.56614 509.63281 287.55664 z M 327.35742 412.42188 C 327.09798 412.03739 326.79269 411.69865 326.53711 411.31055 C 326.32895 411.6264 326.07985 411.90138 325.86914 412.21484 C 326.35783 412.25475 326.85111 412.31287 327.35742 412.42188 z M 325.86914 412.21484 C 317.04972 411.49457 310.63958 421.72242 290.71875 434.94141 C 275.29251 444.99269 257.4945 450.72852 238.52734 450.72852 C 194.59212 450.72852 156.81404 419.98327 140.41211 376.08984 C 154.69691 424.89778 194.64831 460.06055 241.63672 460.06055 C 275.91007 460.06055 306.32603 441.2885 325.86914 412.21484 z "
             style="fill:#d3d3d3;fill-opacity:1;stroke:none;filter:url(#filter6314)"
             id="path6334"
             d="m 509.74219,277.90234 a 9.678973,9.678973 0 0 0 -9.39844,12.37305 c 3.38139,11.55139 5.22461,23.95357 5.22461,36.88477 0,63.67804 -44.26565,113.89062 -97.15625,113.89062 -17.28719,0 -33.43227,-5.29839 -47.58399,-14.66992 -11.90214,-12.04043 -19.18246,-19.3742 -28.02148,-22.43555 a 9.678973,9.678973 0 0 0 -11.01562,-1.06836 c -5.97886,0.97132 -10.92354,4.38263 -15.34766,7.89063 -5.56951,4.41621 -11.66273,9.85485 -21.03711,16.08008 -13.97775,9.10046 -29.87426,14.20312 -46.87891,14.20312 -39.42019,0 -73.83382,-27.63056 -89.04882,-68.34766 a 9.678973,9.678973 0 0 0 -18.35547,6.10547 c 15.29923,52.27402 58.69704,90.92969 110.51367,90.92969 33.69992,0 63.83364,-16.58056 84.91211,-42.35937 21.0924,25.79169 51.26566,42.35937 84.97461,42.35937 65.00897,0 116.51172,-60.50897 116.51172,-133.24609 0,-18.53896 -3.32156,-36.23098 -9.33594,-52.32422 a 9.678973,9.678973 0 0 0 -8.95703,-6.26563 z"
             transform="matrix(0.73153553,0,0,0.73153553,-398.46184,552.70236)" />
        </g>
        <g
           transform="matrix(2.9489767,0,0,4.7676062,-734.13508,328.99113)"
           id="g4231">
          <g
             id="g319"
             style="fill:url(#linearGradient6270);fill-opacity:1;stroke:none">
            <linearGradient
               x1="348.28809"
               y1="-137.29201"
               x2="361.62851"
               y2="-137.29201"
               id="linearGradient4266"
               gradientUnits="userSpaceOnUse"
               gradientTransform="matrix(0.6415,0,0,-0.7781,-31.1663,4.888)">
              <stop
                 style="stop-color:#fbb045;stop-opacity:1;fill-opacity:1;fill:url(#linearGradient5960)"
                 offset="0"
                 id="stop4268" />
              <stop
                 style="stop-color:#c77829;stop-opacity:1;fill-opacity:1;fill:url(#linearGradient5960)"
                 offset="1"
                 id="stop4270" />
            </linearGradient>
            <path
               inkscape:connector-curvature="0"
               d="m 194.694,95.631301 c -9.361,0 -19.538,9.381999 -19.13,15.304999 0.406,5.924 16.689,30.611 20.352,30.611 3.665,0 17.911,-24.193 17.503,-31.105 -0.406,-6.911 -12.616,-15.303999 -18.725,-14.810999 z"
               style="fill:url(#linearGradient5992);fill-opacity:1;stroke:none"
               id="path2391_1_" />
          </g>
          <path
             style="fill:#72737a;fill-opacity:1;stroke:none"
             d="m -180.99609,643.17773 c -5.64343,23.02399 -35.15778,71.6211 -43.42969,71.6211 -8.06462,0 -40.24846,-47.19561 -49.2461,-69.44336 -0.83921,2.37311 -1.2434,4.66728 -1.09765,6.7832 1.0291,15.01582 42.30313,77.58985 51.58789,77.58985 9.28983,0 45.39941,-61.32361 44.36523,-78.84375 -0.1479,-2.5177 -0.93042,-5.11217 -2.17968,-7.70704 z"
             id="path4203"
             inkscape:connector-curvature="0"
             transform="matrix(0.39451731,0,0,0.39451731,283.96531,-146.34338)" />
        </g>
        <path
           inkscape:connector-curvature="0"
           style="opacity:0.17600002;fill:#203e64;fill-opacity:0.91384612;stroke:none;filter:url(#filter5771)"
           d="m -55.035156,470.33008 c 1.16413,2.50486 2.292681,5.03217 3.376953,7.58789 8.800628,24.13329 13.441406,50.51471 13.441406,78.17383 0,114.50701 -139.728473,207.45508 -207.449223,207.45508 -46.84729,0 -133.49547,-47.99852 -178.54882,-117.50391 37.42622,83.9562 140.70248,144.87695 193.47851,144.87695 67.72076,0 207.451174,-92.94611 207.451174,-207.45312 0,-27.65912 -4.640778,-54.04249 -13.441406,-78.17578 -5.204145,-12.26659 -11.343546,-23.95331 -18.308594,-34.96094 z"
           id="path4224"
           transform="matrix(1.0467907,0,0,1.0467907,78.240954,186.16233)" />
        <path
           id="path6283"
           d="m -195.81699,729.72971 c -14.84126,0 -26.9668,12.12411 -26.9668,26.96537 0,14.83904 12.12554,26.96251 26.9668,26.96251 14.83841,0 26.96252,-12.12125 26.96252,-26.96251 0,-14.84126 -12.12348,-26.96537 -26.96252,-26.96537 z m -8.16976,13.16906 c 3.2397,0.003 5.868,2.63116 5.868,5.87086 0,3.24244 -2.62557,5.86943 -5.868,5.86943 -3.24244,0 -5.86943,-2.62699 -5.86943,-5.86943 0,-3.24243 2.62699,-5.87086 5.86943,-5.87086 z"
           style="color:#000000;font-style:normal;font-variant:normal;font-weight:normal;font-stretch:normal;line-height:normal;font-family:sans-serif;-inkscape-font-specification:sans-serif;text-indent:0;text-align:start;text-decoration:none;text-decoration-line:none;letter-spacing:normal;word-spacing:normal;text-transform:none;writing-mode:lr-tb;direction:ltr;baseline-shift:baseline;text-anchor:start;clip-rule:nonzero;display:inline;overflow:visible;visibility:visible;color-interpolation:sRGB;color-interpolation-filters:linearRGB;fill:#102543;fill-opacity:1;fill-rule:nonzero;stroke:none;stroke-width:8.67926788;marker:none;color-rendering:auto;image-rendering:auto;shape-rendering:auto;text-rendering:auto;enable-background:accumulate"
           inkscape:connector-curvature="0" />
        <path
           style="color:#000000;font-style:normal;font-variant:normal;font-weight:normal;font-stretch:normal;line-height:normal;font-family:sans-serif;-inkscape-font-specification:sans-serif;text-indent:0;text-align:start;text-decoration:none;text-decoration-line:none;letter-spacing:normal;word-spacing:normal;text-transform:none;writing-mode:lr-tb;direction:ltr;baseline-shift:baseline;text-anchor:start;clip-rule:nonzero;display:inline;overflow:visible;visibility:visible;color-interpolation:sRGB;color-interpolation-filters:linearRGB;fill:#102543;fill-opacity:1;fill-rule:nonzero;stroke:none;stroke-width:6.34919262;marker:none;color-rendering:auto;image-rendering:auto;shape-rendering:auto;text-rendering:auto;enable-background:accumulate"
           d="m -119.54821,729.72971 c -14.84125,0 -26.96679,12.12411 -26.96679,26.96537 0,14.83904 12.12554,26.96251 26.96679,26.96251 14.83842,0 26.962524,-12.12125 26.962524,-26.96251 0,-14.84126 -12.123474,-26.96537 -26.962524,-26.96537 z m -8.16976,13.16906 c 3.2397,0.003 5.868,2.63116 5.868,5.87086 0,3.24244 -2.62556,5.86943 -5.868,5.86943 -3.24243,0 -5.86943,-2.62699 -5.86943,-5.86943 0,-3.24243 2.627,-5.87086 5.86943,-5.87086 z"
           id="path3301_1_"
           inkscape:connector-curvature="0" />
      </g>
    </g>
    <rect
       style="color:#000000;clip-rule:nonzero;display:inline;overflow:visible;visibility:visible;opacity:0.17600002;color-interpolation:sRGB;color-interpolation-filters:linearRGB;fill:none;fill-opacity:1;fill-rule:nonzero;stroke:none;stroke-width:11.41800022;marker:none;color-rendering:auto;image-rendering:auto;shape-rendering:auto;text-rendering:auto;enable-background:accumulate"
       id="rect4305"
       width="199.08018"
       height="201.5687"
       x="-889.26666"
       y="514.96997"
       rx="22.875278"
       ry="22.875278" />
    <g
       id="g6633"
       transform="translate(-2,-1)" />
  </g>
</svg>
