<?xml version="1.0" encoding="UTF-8"?>
<svg height="16px" viewBox="0 0 16 16" width="16px" xmlns="http://www.w3.org/2000/svg">
    <path d="m 2 2 c 0 0.734375 0.269531 1.464844 0.707031 2.097656 c -0.769531 -0.058594 -1.539062 0.070313 -2.171875 0.4375 c 0.390625 0.675782 1.046875 1.199219 1.800782 1.527344 c -0.199219 0.585938 -0.3125 1.199219 -0.328126 1.816406 c -0.003906 0.039063 -0.007812 0.078125 -0.007812 0.121094 v 5 c 0 0.554688 0.445312 1 1 1 h 5 c 0.042969 0 0.082031 -0.003906 0.121094 -0.007812 c 2.492187 -0.054688 4.6875 -1.644532 5.523437 -3.992188 h 1.855469 c 0.148438 0 0.292969 -0.066406 0.386719 -0.183594 c 0.09375 -0.113281 0.132812 -0.265625 0.101562 -0.414062 c -0.257812 -1.300782 -0.667969 -2.28125 -1.371093 -3.050782 c -0.34375 -0.378906 -0.75 -0.703124 -1.230469 -0.992187 c -1.007813 -2.058594 -3.097657 -3.359375 -5.386719 -3.359375 c -1.222656 0.007812 -2.417969 0.386719 -3.417969 1.089844 c -0.726562 -0.660156 -1.65625 -1.089844 -2.582031 -1.089844 z m 9.4375 2.5 h 0.074219 c -0.042969 0 -0.085938 0.007812 -0.125 0.015625 c 0.019531 -0.003906 0.035156 -0.011719 0.050781 -0.015625 z m 0.097656 0 c 0.050782 0.003906 0.101563 0.015625 0.152344 0.035156 c -0.050781 -0.019531 -0.101562 -0.03125 -0.152344 -0.035156 z m -0.179687 0.023438 c -0.050781 0.015624 -0.09375 0.035156 -0.136719 0.0625 c -0.039062 0.027343 -0.074219 0.0625 -0.105469 0.101562 c 0.03125 -0.039062 0.066407 -0.074219 0.105469 -0.101562 c 0.039062 -0.027344 0.085938 -0.046876 0.136719 -0.0625 z m -0.265625 0.195312 c -0.019532 0.03125 -0.039063 0.0625 -0.050782 0.09375 c 0.015626 -0.03125 0.03125 -0.0625 0.050782 -0.09375 z m -0.066406 0.136719 c -0.015626 0.046875 -0.023438 0.09375 -0.023438 0.144531 c 0 -0.050781 0.007812 -0.101562 0.023438 -0.144531 z m 0.976562 1.023437 c 0.738281 0.359375 1.476562 0.699219 1.882812 1.144532 c 0.421876 0.464843 0.640626 1.199218 0.867188 1.976562 h -2.75 z m -3 0.121094 c 0.550781 0 1 0.449219 1 1 s -0.449219 1 -1 1 s -1 -0.449219 -1 -1 s 0.449219 -1 1 -1 z m 2 3.5 c 0 0.050781 0.007812 0.101562 0.023438 0.148438 c -0.011719 -0.046876 -0.023438 -0.097657 -0.023438 -0.148438 z m 0.027344 0.15625 c 0.015625 0.046875 0.039062 0.09375 0.066406 0.132812 c -0.027344 -0.039062 -0.050781 -0.082031 -0.066406 -0.132812 z m 0.078125 0.144531 c 0.027343 0.035157 0.058593 0.066407 0.09375 0.09375 c -0.035157 -0.027343 -0.066407 -0.058593 -0.09375 -0.09375 z m 0.105469 0.105469 c 0.039062 0.027344 0.085937 0.050781 0.132812 0.066406 c -0.050781 -0.015625 -0.09375 -0.039062 -0.132812 -0.066406 z m 0.140624 0.066406 c 0.046876 0.019532 0.097657 0.027344 0.148438 0.027344 c -0.050781 0 -0.101562 -0.011719 -0.148438 -0.027344 z m 0 0" fill="#241f31"/>
</svg>
