<?xml version="1.0" encoding="UTF-8"?>
<svg height="128px" viewBox="0 0 128 128" width="128px" xmlns="http://www.w3.org/2000/svg">
    <path d="m 14 12 c 11 0 22 10 22 22 c 0 1.109375 -0.890625 2 -2 2 c -18 0 -22 -17 -22 -22 c 0 -1.109375 0.890625 -2 2 -2 z m 0 0" fill="#0f1126"/>
    <path d="m 5.414062 25.277344 c 9.582032 -5.402344 24.074219 -2.09375 29.964844 8.359375 c 0.546875 0.964843 0.207032 2.179687 -0.757812 2.726562 c -15.683594 8.835938 -27.515625 -4.007812 -29.96875 -8.363281 c -0.542969 -0.964844 -0.207032 -2.179688 0.761718 -2.722656 z m 0 0" fill="#202340"/>
    <path d="m 59.503906 12.496094 c -28.226562 0.019531 -51.179687 22.757812 -51.46875 50.984375 c -0.011718 -0.007813 -0.023437 -0.011719 -0.035156 -0.015625 v 45.328125 c 0 3.992187 3.214844 7.207031 7.207031 7.207031 h 44.296875 v -0.496094 c 28.445313 0 51.503906 -23.058594 51.503906 -51.503906 s -23.058593 -51.503906 -51.503906 -51.503906 z m 0 0" fill="#363959"/>
    <path d="m 80 52 c 0 8.835938 -7.164062 16 -16 16 s -16 -7.164062 -16 -16 s 7.164062 -16 16 -16 s 16 7.164062 16 16 z m 0 0" fill="#202340"/>
    <path d="m 80 48 c 0 8.835938 -7.164062 16 -16 16 s -16 -7.164062 -16 -16 s 7.164062 -16 16 -16 s 16 7.164062 16 16 z m 0 0" fill="#1a5fb4"/>
    <path d="m 64 42 c 0 3.3125 -2.6875 6 -6 6 s -6 -2.6875 -6 -6 s 2.6875 -6 6 -6 s 6 2.6875 6 6 z m 0 0" fill="#c0c2d6"/>
    <path d="m 110.863281 62 c -1.070312 27.605469 -23.734375 49.449219 -51.359375 49.503906 v 0.496094 h -44.296875 c -3.992187 0 -7.207031 -3.214844 -7.207031 -7.207031 v 4 c 0 3.992187 3.214844 7.207031 7.207031 7.207031 h 44.296875 v -0.496094 c 28.445313 0 51.503906 -23.058594 51.503906 -51.503906 c -0.035156 -0.667969 -0.082031 -1.335938 -0.144531 -2 z m 0 0" fill="#241f31"/>
    <path d="m 91.03125 64.183594 c -1.957031 -0.71875 -4.03125 0.730468 -4.03125 2.816406 v 22 c 0 1.515625 1.128906 2.789062 2.628906 2.976562 c 13.964844 1.734376 23.847656 -4.734374 32.277344 -11.65625 c 1.789062 -1.476562 1.304688 -4.335937 -0.875 -5.136718 z m 0 0" fill="#8a8ca0"/>
    <path d="m 90.902344 39.136719 c -1.933594 -0.605469 -3.902344 0.835937 -3.902344 2.863281 v 35 c 0 1.65625 1.34375 3 3 3 h 35 c 1.972656 0 3.410156 -1.871094 2.898438 -3.777344 c -2.394532 -8.9375 -9.070313 -17.1875 -16.324219 -23.789062 c -7.253907 -6.601563 -14.960938 -11.5 -20.671875 -13.296875 z m 0 0" fill="#c0c2d6"/>
    <path d="m 108 56 c 0 2.210938 -1.789062 4 -4 4 s -4 -1.789062 -4 -4 s 1.789062 -4 4 -4 s 4 1.789062 4 4 z m 0 0" fill="#241f31"/>
</svg>
